<svg width="100" height="100" viewBox="0 0 100 100" fill="none" xmlns="http://www.w3.org/2000/svg">
<circle cx="49.9997" cy="50.0002" r="11.2927" stroke="#FC2B6D" stroke-width="2" stroke-linejoin="round"/>
<circle cx="50.0487" cy="49.9999" r="2.56044" fill="#FC2B6D" stroke="#FC2B6D" stroke-width="2" stroke-linejoin="round"/>
<circle cx="50.0003" cy="49.9998" r="22.7073" stroke="#FC2B6D" stroke-width="2" stroke-linejoin="round"/>
<circle cx="50" cy="50" r="35" stroke="#FC2B6D" stroke-width="2" stroke-linejoin="round"/>
<circle cx="50" cy="50" r="35" stroke="#FC2B6D" stroke-width="2" stroke-linejoin="round"/>
<path d="M93 50C93 61.9222 88.148 72.7112 80.3109 80.5M50 93C58.2486 93 65.9546 90.6775 72.5 86.6507M7 50C7 38.0778 11.852 27.2888 19.6891 19.5M50 7C42.3734 7 35.2104 8.98552 29 12.4679" stroke="#FC2B6D" stroke-width="2" stroke-linejoin="round"/>
<path d="M50 49.9998V15.3169" stroke="#FC2B6D" stroke-width="2" stroke-linecap="round" stroke-linejoin="round"/>
<path d="M53.0723 19.2681H57.0235" stroke="#FC2B6D" stroke-width="2" stroke-linecap="round" stroke-linejoin="round"/>
<path d="M53.0723 31.561H57.0235" stroke="#FC2B6D" stroke-width="2" stroke-linecap="round" stroke-linejoin="round"/>
<path d="M53.0723 35.0732H53.9503" stroke="#FC2B6D" stroke-width="2" stroke-linecap="round" stroke-linejoin="round"/>
<path d="M53.0723 22.7803H53.9503" stroke="#FC2B6D" stroke-width="2" stroke-linecap="round" stroke-linejoin="round"/>
<path d="M53.0723 42.9756H53.9503" stroke="#FC2B6D" stroke-width="2" stroke-linecap="round" stroke-linejoin="round"/>
<path d="M50 50.0002V84.6831" stroke="#FC2B6D" stroke-width="2" stroke-linecap="round" stroke-linejoin="round"/>
<path d="M46.9277 80.7319H42.9765" stroke="#FC2B6D" stroke-width="2" stroke-linecap="round" stroke-linejoin="round"/>
<path d="M46.9277 68.439H42.9765" stroke="#FC2B6D" stroke-width="2" stroke-linecap="round" stroke-linejoin="round"/>
<path d="M46.9277 64.9268H46.0497" stroke="#FC2B6D" stroke-width="2" stroke-linecap="round" stroke-linejoin="round"/>
<path d="M46.9277 77.2197H46.0497" stroke="#FC2B6D" stroke-width="2" stroke-linecap="round" stroke-linejoin="round"/>
<path d="M46.9277 57.0244H46.0497" stroke="#FC2B6D" stroke-width="2" stroke-linecap="round" stroke-linejoin="round"/>
</svg>
