<svg width="100" height="100" viewBox="0 0 100 100" fill="none" xmlns="http://www.w3.org/2000/svg">
<path d="M40.6432 18.7929C41.4907 16.1647 44.3083 14.7212 46.9364 15.5687L71.5581 23.5086C74.1863 24.3561 75.6298 27.1737 74.7823 29.8018L58.2119 81.1871C57.3644 83.8153 54.5468 85.2588 51.9186 84.4113L27.2969 76.4714C24.6688 75.6239 23.2253 72.8063 24.0728 70.1782L40.6432 18.7929Z" stroke="#FC2B6D" stroke-width="2"/>
<path d="M52.3945 22.6636L63.6335 26.2878" stroke="#FC2B6D" stroke-width="2" stroke-linecap="round"/>
<rect x="19.5605" y="13.9092" width="26.9828" height="26.9828" rx="13.4914" stroke="#FC2B6D" stroke-width="2"/>
<path d="M32.9793 24.1899C31.2741 24.1899 29.8613 25.5784 29.8613 27.3079C29.8613 29.0374 31.2498 30.4258 32.9793 30.4258C34.7087 30.4258 36.0972 29.013 36.0972 27.3079C36.0972 25.6028 34.6844 24.1899 32.9793 24.1899ZM32.9793 29.3053C31.8831 29.3053 30.9818 28.404 30.9818 27.3079C30.9818 26.2117 31.8831 25.3104 32.9793 25.3104C34.0754 25.3104 34.9767 26.2117 34.9767 27.3079C34.9767 28.404 34.0754 29.3053 32.9793 29.3053Z" fill="white"/>
<path d="M36.2201 24.8225C36.6102 24.8225 36.9265 24.5062 36.9265 24.1161C36.9265 23.7259 36.6102 23.4097 36.2201 23.4097C35.8299 23.4097 35.5137 23.7259 35.5137 24.1161C35.5137 24.5062 35.8299 24.8225 36.2201 24.8225Z" fill="white"/>
<path d="M38.0471 22.2892C37.4138 21.6316 36.5125 21.2905 35.4894 21.2905H30.4715C28.3523 21.2905 26.9395 22.7033 26.9395 24.8226V29.8161C26.9395 30.8636 27.2805 31.7648 27.9625 32.4225C28.6202 33.0559 29.4971 33.3725 30.4958 33.3725H35.4651C36.5125 33.3725 37.3894 33.0315 38.0227 32.4225C38.6804 31.7892 39.0215 30.8879 39.0215 29.8405V24.8226C39.0215 23.7995 38.6804 22.9226 38.0471 22.2892ZM37.9497 29.8405C37.9497 30.5956 37.6817 31.2046 37.2433 31.6187C36.8048 32.0328 36.1958 32.252 35.4651 32.252H30.4958C29.7651 32.252 29.1561 32.0328 28.7177 31.6187C28.2792 31.1802 28.06 30.5713 28.06 29.8161V24.8226C28.06 24.0918 28.2792 23.4828 28.7177 23.0444C29.1318 22.6303 29.7651 22.411 30.4958 22.411H35.5138C36.2445 22.411 36.8535 22.6303 37.292 23.0687C37.7061 23.5072 37.9497 24.1162 37.9497 24.8226V29.8405Z" fill="white"/>
<rect x="69.0449" y="35.2773" width="22.9543" height="22.9543" rx="11.4772" stroke="#FC2B6D" stroke-width="2"/>
<path d="M75.9808 45.2751H77.9665V51.2508H75.9808V45.2751ZM76.9869 42.3945C76.3073 42.3945 75.8633 42.8407 75.8633 43.4264C75.8633 43.9999 76.2943 44.4591 76.961 44.4591H76.9736C77.6663 44.4591 78.0976 43.9999 78.0976 43.4264C78.0846 42.8407 77.6663 42.3945 76.9869 42.3945ZM82.8421 45.1347C81.788 45.1347 81.3158 45.7145 81.0524 46.1211V45.2751H79.066C79.0923 45.8357 79.066 51.2508 79.066 51.2508H81.0524V47.9136C81.0524 47.7348 81.0654 47.5568 81.1176 47.4287C81.2614 47.0719 81.5883 46.7024 82.1365 46.7024C82.8557 46.7024 83.1429 47.2506 83.1429 48.0536V51.2508H85.129V47.8242C85.129 45.9888 84.1494 45.1347 82.8421 45.1347Z" fill="white"/>
<rect x="7.18945" y="54.3965" width="31.3264" height="31.3264" rx="15.6632" stroke="#FC2B6D" stroke-width="2"/>
<path d="M28.9939 68.7958C27.7782 68.7986 26.5924 68.4217 25.6038 67.7182V72.6249C25.6035 73.5337 25.3241 74.4207 24.8031 75.1673C24.2821 75.914 23.5442 76.4847 22.6881 76.8031C21.832 77.1215 20.8986 77.1725 20.0126 76.9492C19.1266 76.7259 18.3303 76.239 17.7302 75.5536C17.13 74.8682 16.7546 74.017 16.6541 73.1137C16.5537 72.2104 16.733 71.2982 17.1681 70.499C17.6031 69.6997 18.2732 69.0516 19.0888 68.6413C19.9043 68.231 20.8264 68.0779 21.7317 68.2027V70.6706C21.3174 70.5411 20.8726 70.545 20.4606 70.6818C20.0487 70.8186 19.6908 71.0813 19.438 71.4325C19.1852 71.7836 19.0505 72.2052 19.053 72.637C19.0556 73.0688 19.1953 73.4888 19.4523 73.8369C19.7092 74.1851 20.0702 74.4436 20.4837 74.5756C20.8972 74.7075 21.3421 74.7062 21.7548 74.5718C22.1676 74.4374 22.527 74.1768 22.7819 73.8271C23.0367 73.4775 23.1739 73.0567 23.1739 72.6249V63.0327H25.6038C25.6022 63.2367 25.6194 63.4405 25.6552 63.6414C25.7396 64.0899 25.9152 64.5165 26.1712 64.8952C26.4271 65.2739 26.7581 65.5967 27.1438 65.8438C27.6926 66.2046 28.336 66.3969 28.9939 66.3968V68.7958Z" fill="white"/>
</svg>
