<svg width="100" height="100" viewBox="0 0 100 100" fill="none" xmlns="http://www.w3.org/2000/svg">
<path fill-rule="evenodd" clip-rule="evenodd" d="M8.96675 20.0204C6.26899 20.61 4.55996 23.2749 5.14951 25.9726L11.1419 53.3932C11.7314 56.091 14.3963 57.8 17.0941 57.2104L17.8762 57.0395C18.4157 56.9216 18.9487 57.2634 19.0666 57.803L20.8607 66.0125C21.0481 66.8701 22.1705 67.0873 22.6644 66.3616L30.7282 54.5113C30.8721 54.2998 31.0915 54.1515 31.3414 54.0969L58.6212 48.1353C61.319 47.5457 63.028 44.8809 62.4385 42.1831L56.4461 14.7625C55.8566 12.0647 53.1917 10.3557 50.4939 10.9453L8.96675 20.0204ZM17.0899 28.1666C16.3098 28.3371 15.8156 29.1077 15.986 29.8879C16.1565 30.668 16.9271 31.1622 17.7073 30.9917L37.873 26.5848C38.6531 26.4143 39.1473 25.6437 38.9768 24.8636C38.8064 24.0835 38.0357 23.5892 37.2556 23.7597L17.0899 28.1666ZM47.8022 29.2442C48.5823 29.0737 49.3529 29.5679 49.5234 30.348C49.6939 31.1281 49.1996 31.8988 48.4195 32.0692L19.333 38.4257C18.5529 38.5961 17.7823 38.1019 17.6118 37.3218C17.4413 36.5417 17.9355 35.7711 18.7157 35.6006L47.8022 29.2442ZM42.58 39.655C42.4095 38.8749 41.6389 38.3807 40.8588 38.5512L20.3402 43.0352C19.56 43.2057 19.0658 43.9763 19.2363 44.7564C19.4068 45.5365 20.1774 46.0307 20.9575 45.8602L41.4762 41.3762C42.2563 41.2057 42.7505 40.4351 42.58 39.655Z" fill="#FC2B6D"/>
<path d="M89.9026 41.4009L48.022 34.1295C45.8454 33.7516 43.7746 35.2097 43.3967 37.3863L38.5953 65.0403C38.2174 67.2168 39.6755 69.2877 41.8521 69.6656L69.3641 74.4423C69.8681 74.5298 70.3195 74.8071 70.6253 75.2172L79.1939 86.7079L80.6314 78.4285C80.8203 77.3402 81.8557 76.6111 82.944 76.8001L83.7327 76.937C85.9093 77.3149 87.9801 75.8568 88.358 73.6802L93.1594 46.0262C93.5373 43.8497 92.0792 41.7788 89.9026 41.4009Z" stroke="#FC2B6D" stroke-width="2" stroke-linejoin="round"/>
<path d="M68.998 30.3735L75.998 31.3735" stroke="#FC2B6D" stroke-width="2" stroke-linecap="round" stroke-linejoin="round"/>
<path d="M62.1387 18L63.8956 24.8883" stroke="#FC2B6D" stroke-width="2" stroke-linecap="round" stroke-linejoin="round"/>
<path d="M73.6309 20.2363L68.4981 25.1546" stroke="#FC2B6D" stroke-width="2" stroke-linecap="round" stroke-linejoin="round"/>
<path d="M32.9023 69.1797L25.9023 68.1797" stroke="#FC2B6D" stroke-width="2" stroke-linecap="round" stroke-linejoin="round"/>
<path d="M39.7617 81.5532L38.0048 74.665" stroke="#FC2B6D" stroke-width="2" stroke-linecap="round" stroke-linejoin="round"/>
<path d="M28.2695 79.3169L33.4023 74.3986" stroke="#FC2B6D" stroke-width="2" stroke-linecap="round" stroke-linejoin="round"/>
<rect width="23.5334" height="2.89173" rx="1.44586" transform="matrix(-0.98526 -0.171064 -0.171064 0.98526 83.7363 49.1523)" fill="#FC2B6D"/>
<rect x="50.252" y="51.062" width="32.6647" height="2.89173" rx="1.44586" transform="rotate(9.8497 50.252 51.062)" fill="#FC2B6D"/>
<rect x="57.5898" y="60.0605" width="23.8946" height="2.89173" rx="1.44586" transform="rotate(9.8497 57.5898 60.0605)" fill="#FC2B6D"/>
</svg>
