<svg width="123" height="123" viewBox="0 0 123 123" fill="none" xmlns="http://www.w3.org/2000/svg">
<rect x="30" y="10" width="35.3956" height="35.3956" rx="17.6978" stroke="#FC2B6D" stroke-width="2"/>
<path d="M47.605 23.5544C45.4049 23.5544 43.582 25.3459 43.582 27.5774C43.582 29.8089 45.3735 31.6004 47.605 31.6004C49.8365 31.6004 51.628 29.7775 51.628 27.5774C51.628 25.3774 49.8051 23.5544 47.605 23.5544ZM47.605 30.1546C46.1907 30.1546 45.0278 28.9917 45.0278 27.5774C45.0278 26.1631 46.1907 25.0002 47.605 25.0002C49.0193 25.0002 50.1822 26.1631 50.1822 27.5774C50.1822 28.9917 49.0193 30.1546 47.605 30.1546Z" fill="white"/>
<path d="M51.7865 24.371C52.2898 24.371 52.6979 23.9629 52.6979 23.4596C52.6979 22.9562 52.2898 22.5481 51.7865 22.5481C51.2831 22.5481 50.875 22.9562 50.875 23.4596C50.875 23.9629 51.2831 24.371 51.7865 24.371Z" fill="white"/>
<path d="M54.1443 21.1018C53.3272 20.2532 52.1643 19.8132 50.8442 19.8132H44.3698C41.6354 19.8132 39.8125 21.6361 39.8125 24.3705V30.8135C39.8125 32.165 40.2525 33.3279 41.1325 34.1765C41.9811 34.9937 43.1126 35.4022 44.4012 35.4022H50.8128C52.1643 35.4022 53.2957 34.9622 54.1129 34.1765C54.9615 33.3593 55.4015 32.1964 55.4015 30.845V24.3705C55.4015 23.0505 54.9615 21.919 54.1443 21.1018ZM54.0186 30.845C54.0186 31.8193 53.6729 32.605 53.1072 33.1393C52.5414 33.6736 51.7557 33.9565 50.8128 33.9565H44.4012C43.4583 33.9565 42.6726 33.6736 42.1069 33.1393C41.5411 32.5736 41.2583 31.7879 41.2583 30.8135V24.3705C41.2583 23.4276 41.5411 22.6419 42.1069 22.0762C42.6412 21.5419 43.4583 21.259 44.4012 21.259H50.8757C51.8186 21.259 52.6043 21.5419 53.17 22.1076C53.7043 22.6733 54.0186 23.459 54.0186 24.3705V30.845Z" fill="white"/>
<rect x="83" y="49" width="30.1978" height="30.1978" rx="15.0989" stroke="#FC2B6D" stroke-width="2"/>
<path d="M92.2375 62.1906H94.7997V69.9009H92.2375V62.1906ZM93.5358 58.4739C92.6588 58.4739 92.0859 59.0496 92.0859 59.8052C92.0859 60.5453 92.6421 61.1377 93.5022 61.1377H93.5186C94.4123 61.1377 94.9688 60.5453 94.9688 59.8052C94.952 59.0496 94.4123 58.4739 93.5358 58.4739ZM101.09 62.0095C99.7304 62.0095 99.1212 62.7575 98.7813 63.2821V62.1906H96.2183C96.2523 62.9139 96.2183 69.9009 96.2183 69.9009H98.7813V65.5949C98.7813 65.3643 98.798 65.1345 98.8655 64.9693C99.051 64.5089 99.4727 64.0322 100.18 64.0322C101.108 64.0322 101.479 64.7395 101.479 65.7756V69.9009H104.041V65.4796C104.041 63.1114 102.777 62.0095 101.09 62.0095Z" fill="white"/>
<rect x="11" y="71" width="41" height="41" rx="20.5" stroke="#FC2B6D" stroke-width="2"/>
<path d="M39.4254 89.8695C37.8568 89.8733 36.3268 89.3869 35.0513 88.4791V94.8101C35.0509 95.9827 34.6905 97.1272 34.0182 98.0906C33.3459 99.0539 32.3938 99.7903 31.2893 100.201C30.1847 100.612 28.9803 100.678 27.8372 100.39C26.694 100.102 25.6665 99.4734 24.8922 98.589C24.1178 97.7046 23.6334 96.6063 23.5038 95.4408C23.3742 94.2753 23.6056 93.0983 24.1669 92.0671C24.7283 91.0359 25.5929 90.1997 26.6451 89.6702C27.6974 89.1408 28.8871 88.9434 30.0553 89.1044V92.2886C29.5207 92.1215 28.9467 92.1265 28.4152 92.303C27.8837 92.4796 27.4219 92.8185 27.0958 93.2716C26.7696 93.7247 26.5958 94.2686 26.5991 94.8257C26.6024 95.3829 26.7826 95.9248 27.1141 96.374C27.4457 96.8232 27.9114 97.1567 28.445 97.327C28.9785 97.4973 29.5526 97.4956 30.0851 97.3222C30.6176 97.1488 31.0814 96.8125 31.4102 96.3613C31.7391 95.9102 31.9161 95.3673 31.9161 94.8101V82.4337H35.0513C35.0492 82.6969 35.0714 82.9598 35.1176 83.219C35.2266 83.7977 35.4531 84.3481 35.7833 84.8367C36.1136 85.3253 36.5406 85.7418 37.0383 86.0607C37.7464 86.5262 38.5765 86.7743 39.4254 86.7742V89.8695Z" fill="white"/>
<circle cx="14" cy="46" r="5" fill="#FC2B6D"/>
<circle cx="95" cy="21" r="13" fill="#FC2B6D"/>
<circle cx="75" cy="92" r="9" fill="#FC2B6D"/>
<path d="M31 35.5L14.5 46.5L22.5 72.5M52.5 93.5L75 92.5L88.5 76.5M99 48L94.5 20.5L66 24M18 48L83 60.5M45 75.5L87.5 28.5M56.5 44L72.5 86.5M14.5 34L25 27.5M10.5 65L13.5 75.5M88.5 88.5L93.5 82.5M105 33L107.5 44" stroke="#FC2B6D" stroke-linecap="round"/>
</svg>
