<svg width="31" height="35" viewBox="0 0 31 35" fill="none" xmlns="http://www.w3.org/2000/svg">
<path d="M30.8 14.3222C27.7724 14.3294 24.819 13.3926 22.3571 11.6442V23.8382C22.3563 26.0967 21.6605 28.3011 20.3628 30.1567C19.0652 32.0122 17.2274 33.4305 15.0954 34.2219C12.9634 35.0132 10.6386 35.1399 8.43207 34.585C6.2255 34.0301 4.24226 32.8201 2.74755 31.1167C1.25283 29.4133 0.317884 27.2978 0.0677193 25.053C-0.182446 22.8082 0.264096 20.5411 1.34764 18.5549C2.43118 16.5687 4.10007 14.9581 6.13116 13.9383C8.16225 12.9185 10.4587 12.5383 12.7135 12.8484V18.9816C11.6817 18.6596 10.5737 18.6693 9.54784 19.0093C8.52194 19.3493 7.63055 20.0023 7.00098 20.8749C6.37141 21.7475 6.03585 22.7952 6.04222 23.8683C6.04859 24.9415 6.39657 25.9851 7.03646 26.8504C7.67634 27.7156 8.57542 28.358 9.60529 28.686C10.6352 29.014 11.7432 29.0108 12.7711 28.6768C13.799 28.3427 14.6942 27.695 15.3289 26.826C15.9636 25.9571 16.3054 24.9114 16.3054 23.8382V0H22.3571C22.3529 0.507045 22.3957 1.0134 22.485 1.51266C22.6953 2.62719 23.1326 3.68743 23.77 4.62855C24.4075 5.56967 25.2317 6.37187 26.1924 6.98608C27.5591 7.88269 29.1615 8.36058 30.8 8.36024V14.3222Z" fill="white"/>
</svg>
