
<svg width="131" height="123" viewBox="0 0 131 123" fill="none" xmlns="http://www.w3.org/2000/svg">
<rect x="97.4173" y="68.3507" width="33.8334" height="33.8334" rx="16.9167" transform="rotate(17.3834 97.4173 68.3507)" stroke="#FC2B6D" stroke-width="2"/>
<path d="M105.971 82.3848C106.207 81.6317 107.181 81.4356 107.69 82.0388L114.858 90.5372C115.33 91.0967 115.061 91.9569 114.354 92.1474L103.619 95.0413C102.858 95.2467 102.169 94.5301 102.405 93.777L105.971 82.3848Z" fill="#FC2B6D"/>
<rect x="36.6953" y="28.0249" width="44.5166" height="32.2746" rx="5" transform="rotate(-16.9322 36.6953 28.0249)" stroke="#FC2B6D" stroke-width="2"/>
<path d="M85.4396 35.2886L82.8466 26.7712L96.0759 11.8907C97.1137 10.7235 99.0291 11.1429 99.4839 12.6371L106.855 36.8494C107.299 38.3082 106.013 39.7075 104.522 39.3872L85.4396 35.2886Z" stroke="#FC2B6D" stroke-width="2"/>
<circle cx="24.8458" cy="12.5646" r="5.56458" fill="#FC2B6D"/>
<path d="M55.453 22.0244L25 12.4999L30.9689 72.1056M74.3726 103.267L92.7357 97.7027M101.639 74.8879L111.099 55.9683L79.9372 48.1779M46.5 12.4999L57 15.9999M22.5 53.9999C22.5 54.3999 23.5 62.1665 24 65.9999M17.5 108L34.5 110.5M115.5 67.9999L123.5 49.4999M105.5 10.9999L112.099 32.4999" stroke="#FC2B6D"/>
<circle cx="109.985" cy="55.4119" r="5.00812" fill="#FC2B6D"/>
<rect x="11.7266" y="69.8062" width="66.775" height="32.2746" rx="5" transform="rotate(8.34796 11.7266 69.8062)" stroke="#FC2B6D" stroke-width="2"/>
<rect x="35.8008" y="89.718" width="16.6937" height="4.45166" rx="2.22583" transform="rotate(8.34796 35.8008 89.718)" fill="#FC2B6D"/>
<rect x="55.6211" y="92.6263" width="16.6937" height="4.45166" rx="2.22583" transform="rotate(8.34796 55.6211 92.6263)" fill="#FC2B6D"/>
<rect x="12.707" y="78.4555" width="38.9521" height="4.45166" rx="2.22583" transform="rotate(8.34796 12.707 78.4555)" fill="#FC2B6D"/>
<rect x="55.6484" y="84.757" width="12.2421" height="4.45166" rx="2.22583" transform="rotate(8.34796 55.6484 84.757)" fill="#FC2B6D"/>
<rect x="45.6797" y="99.0417" width="22.2583" height="4.45166" rx="2.22583" transform="rotate(8.34796 45.6797 99.0417)" fill="#FC2B6D"/>
<rect x="26.9609" y="96.295" width="12.2421" height="4.45166" rx="2.22583" transform="rotate(8.34796 26.9609 96.295)" fill="#FC2B6D"/>
<path d="M18.5791 74.8178C18.4989 75.3643 18.8769 75.8723 19.4233 75.9524C19.9698 76.0326 20.4778 75.6546 20.5579 75.1082L18.5791 74.8178ZM20.5579 75.1082L21.2042 70.7037L19.2254 70.4133L18.5791 74.8178L20.5579 75.1082Z" fill="#FC2B6D"/>
<path d="M35.0948 77.2415C35.0146 77.7879 35.3925 78.2959 35.939 78.3761C36.4854 78.4563 36.9934 78.0783 37.0736 77.5319L35.0948 77.2415ZM37.0736 77.5319L37.7199 73.1274L35.7411 72.837L35.0948 77.2415L37.0736 77.5319Z" fill="#FC2B6D"/>
<path d="M50.5127 79.5037C50.4325 80.0501 50.8105 80.5581 51.3569 80.6383C51.9034 80.7185 52.4113 80.3405 52.4915 79.7941L50.5127 79.5037ZM52.4915 79.7941L53.1378 75.3896L51.159 75.0992L50.5127 79.5037L52.4915 79.7941Z" fill="#FC2B6D"/>
<path d="M65.9268 81.7657C65.8466 82.3121 66.2246 82.8201 66.771 82.9002C67.3174 82.9804 67.8254 82.6025 67.9056 82.056L65.9268 81.7657ZM67.9056 82.056L68.5519 77.6515L66.5731 77.3612L65.9268 81.7657L67.9056 82.056Z" fill="#FC2B6D"/>
</svg>
