<svg width="35" height="35" viewBox="0 0 35 35" fill="none" xmlns="http://www.w3.org/2000/svg">
<path d="M17.2962 8.28592C12.4132 8.28592 8.36719 12.2536 8.36719 17.1958C8.36719 22.138 12.3434 26.1057 17.2962 26.1057C22.249 26.1057 26.2253 22.0684 26.2253 17.1958C26.2253 12.3232 22.1793 8.28592 17.2962 8.28592ZM17.2962 22.9037C14.1571 22.9037 11.5761 20.3282 11.5761 17.1958C11.5761 14.0634 14.1571 11.4879 17.2962 11.4879C20.4353 11.4879 23.0164 14.0634 23.0164 17.1958C23.0164 20.3282 20.4353 22.9037 17.2962 22.9037Z" fill="white"/>
<path d="M26.5738 10.0946C27.691 10.0946 28.5967 9.19083 28.5967 8.07596C28.5967 6.96109 27.691 6.05731 26.5738 6.05731C25.4565 6.05731 24.5508 6.96109 24.5508 8.07596C24.5508 9.19083 25.4565 10.0946 26.5738 10.0946Z" fill="white"/>
<path d="M31.8097 2.85395C29.996 0.974519 27.4149 0 24.4851 0H10.1149C4.04597 0 0 4.03729 0 10.0932V24.363C0 27.3562 0.976613 29.9317 2.92984 31.8111C4.81331 33.6209 7.3246 34.5258 10.1847 34.5258H24.4153C27.4149 34.5258 29.9262 33.5513 31.7399 31.8111C33.6234 30.0013 34.6 27.4258 34.6 24.4326V10.0932C34.6 7.16968 33.6234 4.66377 31.8097 2.85395ZM31.5306 24.4326C31.5306 26.5905 30.7633 28.3307 29.5077 29.514C28.252 30.6974 26.5081 31.3238 24.4153 31.3238H10.1847C8.09194 31.3238 6.34798 30.6974 5.09234 29.514C3.83669 28.2611 3.20887 26.5209 3.20887 24.363V10.0932C3.20887 8.00498 3.83669 6.26477 5.09234 5.01181C6.27823 3.82847 8.09194 3.20199 10.1847 3.20199H24.5548C26.6476 3.20199 28.3915 3.82847 29.6472 5.08142C30.8331 6.33438 31.5306 8.07459 31.5306 10.0932V24.4326Z" fill="white"/>
</svg>
