<svg width="31" height="30" viewBox="0 0 31 30" fill="none" xmlns="http://www.w3.org/2000/svg">
<path d="M0.390806 9.55404H6.99555V29.3872H0.390806V9.55404ZM3.73739 -0.00640869C1.47686 -0.00640869 0 1.47446 0 3.41815C0 5.32187 1.43364 6.84579 3.65095 6.84579H3.69307C5.99682 6.84579 7.43149 5.32179 7.43149 3.41815C7.38827 1.47446 5.99689 -0.00640869 3.73739 -0.00640869ZM23.212 9.08815C19.7062 9.08815 18.1355 11.0124 17.2593 12.3618V9.55404H10.6526C10.7401 11.4146 10.6526 29.3872 10.6526 29.3872H17.2593V18.311C17.2593 17.7178 17.3025 17.1267 17.4764 16.7018C17.9547 15.5175 19.0417 14.2911 20.8651 14.2911C23.2573 14.2911 24.2127 16.1107 24.2127 18.7757V29.3872H30.8184V18.0144C30.8184 11.9226 27.5603 9.08815 23.212 9.08815Z" fill="white"/>
</svg>
