<svg width="102" height="37" viewBox="0 0 102 37" fill="none" xmlns="http://www.w3.org/2000/svg">
<path fill-rule="evenodd" clip-rule="evenodd" d="M44.4908 12.6696V5.8173C44.4908 2.60449 41.8863 3.8147e-06 38.6735 3.8147e-06H36.3473C36.4043 5.5739 39.7259 10.4412 44.4908 12.6696ZM28.2029 3.8147e-06H20.6399C17.4271 3.8147e-06 14.8226 2.60449 14.8226 5.8173V13.9615C27.0312 13.9615 36.9283 23.8586 36.9283 36.0672H38.6735C41.8863 36.0672 44.4908 33.4627 44.4908 30.2499V21.3217C35.1491 18.7469 28.2682 10.1324 28.2029 3.8147e-06ZM14.8226 22.1057C22.5333 22.1057 28.7841 28.3565 28.7841 36.0672H20.6399C17.4271 36.0672 14.8226 33.4627 14.8226 30.2499V22.1057ZM25.6124 7.56251C25.6124 9.81147 23.7892 11.6346 21.5403 11.6346C19.2913 11.6346 17.4682 9.81147 17.4682 7.56251C17.4682 5.31355 19.2913 3.49041 21.5403 3.49041C23.7892 3.49041 25.6124 5.31355 25.6124 7.56251ZM5.46238 25.7078C7.9416 23.466 11.2184 22.1057 14.8224 22.1057V13.9615C9.12241 13.9615 3.91799 16.1242 0 19.6671L5.46238 25.7078Z" fill="#FC2B6D"/>
<path d="M89.5547 36.0758L94.0603 26.2197H95.0882L99.5938 36.0758H98.4956L94.356 26.8251H94.7784L90.6389 36.0758H89.5547ZM91.3288 33.4428L91.6386 32.598H97.3692L97.6789 33.4428H91.3288Z" fill="#201E1E"/>
<path d="M86.8828 36.0758V26.2197H87.9247V36.0758H86.8828Z" fill="#201E1E"/>
<path d="M75.25 36.0758V26.2197H79.2628C80.3142 26.2197 81.2341 26.4309 82.0226 26.8533C82.8204 27.2663 83.44 27.8436 83.8811 28.5851C84.3223 29.3267 84.5429 30.1809 84.5429 31.1477C84.5429 32.1146 84.3223 32.9688 83.8811 33.7103C83.44 34.4519 82.8204 35.0339 82.0226 35.4563C81.2341 35.8693 80.3142 36.0758 79.2628 36.0758H75.25ZM76.2919 35.1747H79.2065C80.0795 35.1747 80.8351 35.0057 81.4734 34.6678C82.1211 34.3205 82.6233 33.8464 82.98 33.2457C83.3367 32.6355 83.5151 31.9362 83.5151 31.1477C83.5151 30.3499 83.3367 29.6505 82.98 29.0498C82.6233 28.449 82.1211 27.9797 81.4734 27.6418C80.8351 27.2945 80.0795 27.1208 79.2065 27.1208H76.2919V35.1747Z" fill="#201E1E"/>
<path d="M66.7613 30.6268H71.971V31.5138H66.7613V30.6268ZM66.874 35.1747H72.8017V36.0758H65.832V26.2197H72.5905V27.1208H66.874V35.1747Z" fill="#201E1E"/>
<path d="M52.3828 36.0758V26.2197H53.2417L57.7474 33.9074H57.2968L61.7602 26.2197H62.6191V36.0758H61.6194V27.7826H61.8588L57.7474 34.8227H57.2546L53.115 27.7826H53.3825V36.0758H52.3828Z" fill="#201E1E"/>
<path d="M86.2004 23.1702C85.4004 23.1702 84.6337 23.0654 83.9004 22.8559C83.167 22.6368 82.5765 22.3559 82.1289 22.013L82.9146 20.2701C83.3432 20.5749 83.848 20.8273 84.4289 21.0273C85.0194 21.2178 85.6147 21.313 86.2147 21.313C86.6718 21.313 87.0385 21.2702 87.3147 21.1844C87.6004 21.0892 87.8099 20.9606 87.9433 20.7987C88.0766 20.6368 88.1433 20.4511 88.1433 20.2416C88.1433 19.9749 88.0385 19.7654 87.829 19.613C87.6194 19.4511 87.3432 19.3225 87.0004 19.2273C86.6575 19.1225 86.2766 19.0273 85.8575 18.9416C85.448 18.8463 85.0337 18.732 84.6146 18.5987C84.2051 18.4654 83.8289 18.2939 83.4861 18.0844C83.1432 17.8749 82.8622 17.5987 82.6432 17.2558C82.4337 16.913 82.3289 16.4749 82.3289 15.9415C82.3289 15.3701 82.4813 14.851 82.7861 14.3844C83.1003 13.9082 83.567 13.532 84.1861 13.2558C84.8146 12.9701 85.6004 12.8272 86.5432 12.8272C87.1718 12.8272 87.7909 12.9034 88.4004 13.0558C89.0099 13.1986 89.548 13.4177 90.0147 13.7129L89.3004 15.4701C88.8337 15.2034 88.3671 15.0082 87.9004 14.8844C87.4337 14.751 86.9766 14.6844 86.529 14.6844C86.0813 14.6844 85.7147 14.7368 85.4289 14.8415C85.1432 14.9463 84.9385 15.0844 84.8146 15.2558C84.6908 15.4177 84.6289 15.6082 84.6289 15.8272C84.6289 16.0844 84.7337 16.2939 84.9432 16.4558C85.1527 16.6082 85.4289 16.732 85.7718 16.8273C86.1147 16.9225 86.4909 17.0177 86.9004 17.113C87.3194 17.2082 87.7337 17.3177 88.1433 17.4415C88.5623 17.5654 88.9433 17.732 89.2861 17.9416C89.629 18.1511 89.9052 18.4273 90.1147 18.7701C90.3338 19.113 90.4433 19.5463 90.4433 20.0701C90.4433 20.6321 90.2861 21.1463 89.9718 21.613C89.6576 22.0797 89.1861 22.4559 88.5575 22.7416C87.9385 23.0273 87.1528 23.1702 86.2004 23.1702Z" fill="#FC2B6D"/>
<path d="M73.5781 22.9987V12.9986H75.8924V21.113H80.9068V22.9987H73.5781Z" fill="#FC2B6D"/>
<path d="M67.0677 23.1702C65.6486 23.1702 64.5391 22.7749 63.7391 21.9844C62.9391 21.1939 62.5391 20.0654 62.5391 18.5987V12.9986H64.8534V18.513C64.8534 19.4654 65.0486 20.1511 65.4391 20.5701C65.8296 20.9892 66.3772 21.1987 67.082 21.1987C67.7867 21.1987 68.3344 20.9892 68.7248 20.5701C69.1153 20.1511 69.3106 19.4654 69.3106 18.513V12.9986H71.5963V18.5987C71.5963 20.0654 71.1963 21.1939 70.3963 21.9844C69.5963 22.7749 68.4867 23.1702 67.0677 23.1702Z" fill="#FC2B6D"/>
<path d="M52.3555 22.9987V12.9986H56.6841C57.5793 12.9986 58.3508 13.1462 58.9984 13.4415C59.646 13.7272 60.146 14.1415 60.4984 14.6843C60.8508 15.2272 61.027 15.8748 61.027 16.6272C61.027 17.3701 60.8508 18.013 60.4984 18.5558C60.146 19.0987 59.646 19.5177 58.9984 19.813C58.3508 20.0987 57.5793 20.2416 56.6841 20.2416H53.6412L54.6698 19.1987V22.9987H52.3555ZM54.6698 19.4558L53.6412 18.3558H56.5555C57.2698 18.3558 57.8031 18.2034 58.1555 17.8987C58.5079 17.5939 58.6841 17.1701 58.6841 16.6272C58.6841 16.0748 58.5079 15.6463 58.1555 15.3415C57.8031 15.0367 57.2698 14.8844 56.5555 14.8844H53.6412L54.6698 13.7843V19.4558Z" fill="#FC2B6D"/>
<path d="M92.5703 10.0002V6.48499e-05H96.6418C97.7085 6.48499e-05 98.6418 0.214353 99.4418 0.642929C100.251 1.06198 100.88 1.6477 101.328 2.40009C101.775 3.15248 101.999 4.01916 101.999 5.00012C101.999 5.98108 101.775 6.84776 101.328 7.60015C100.88 8.35254 100.251 8.94302 99.4418 9.37159C98.6418 9.79065 97.7085 10.0002 96.6418 10.0002H92.5703ZM93.6275 9.08588H96.5846C97.4704 9.08588 98.237 8.91445 98.8847 8.57159C99.5418 8.2192 100.051 7.73824 100.413 7.12871C100.775 6.50966 100.956 5.80013 100.956 5.00012C100.956 4.19059 100.775 3.48106 100.413 2.87152C100.051 2.26199 99.5418 1.7858 98.8847 1.44294C98.237 1.09055 97.4704 0.914361 96.5846 0.914361H93.6275V9.08588Z" fill="#201E1E"/>
<path d="M81.8594 10.0002V6.48499e-05H82.7308L89.6309 8.68587H89.1737V6.48499e-05H90.2166V10.0002H89.3452L82.4594 1.31437H82.9165V10.0002H81.8594Z" fill="#201E1E"/>
<path d="M73.2476 4.47154H78.5333V5.37155H73.2476V4.47154ZM73.3618 9.08588H79.3762V10.0002H72.3047V6.48499e-05H79.1619V0.914361H73.3618V9.08588Z" fill="#201E1E"/>
<path d="M62.1289 10.0002V6.48499e-05H65.8718C66.7194 6.48499e-05 67.448 0.138162 68.0575 0.414356C68.6671 0.681025 69.1337 1.07151 69.4576 1.5858C69.7909 2.09056 69.9576 2.70486 69.9576 3.42867C69.9576 4.13344 69.7909 4.74297 69.4576 5.25726C69.1337 5.76203 68.6671 6.15251 68.0575 6.42871C67.448 6.69537 66.7194 6.82871 65.8718 6.82871H62.7146L63.1861 6.34299V10.0002H62.1289ZM68.9575 10.0002L66.3861 6.37156H67.529L70.1147 10.0002H68.9575ZM63.1861 6.42871L62.7146 5.9287H65.8432C66.8432 5.9287 67.6004 5.70965 68.1147 5.27155C68.6385 4.83345 68.9004 4.21916 68.9004 3.42867C68.9004 2.62866 68.6385 2.00961 68.1147 1.57151C67.6004 1.13341 66.8432 0.914361 65.8432 0.914361H62.7146L63.1861 0.414356V6.42871Z" fill="#201E1E"/>
<path d="M55.8698 10.0002V0.914347H52.3555V5.14984e-05H60.4413V0.914347H56.9269V10.0002H55.8698Z" fill="#201E1E"/>
</svg>
