<svg width="191" height="26" viewBox="0 0 191 26" fill="none" xmlns="http://www.w3.org/2000/svg">
<path fill-rule="evenodd" clip-rule="evenodd" d="M31.9256 9.09143V4.17436C31.9256 1.86893 30.0567 0 27.7513 0H26.0821C26.1229 3.99971 28.5065 7.49236 31.9256 9.09143ZM20.2378 0H14.8107C12.5053 0 10.6364 1.86892 10.6364 4.17436V10.0185C19.397 10.0185 26.499 17.1204 26.499 25.8811H27.7513C30.0567 25.8811 31.9256 24.0121 31.9256 21.7067V15.3C25.2222 13.4524 20.2846 7.27077 20.2378 0ZM10.6364 15.8626C16.1694 15.8626 20.6548 20.348 20.6549 25.8811H14.8107C12.5053 25.8811 10.6364 24.0121 10.6364 21.7067V15.8626ZM18.3789 5.42669C18.3789 7.0405 17.0706 8.34875 15.4568 8.34875C13.843 8.34875 12.5348 7.0405 12.5348 5.42669C12.5348 3.81289 13.843 2.50464 15.4568 2.50464C17.0706 2.50464 18.3789 3.81289 18.3789 5.42669ZM3.91969 18.4474C5.69872 16.8387 8.05007 15.8626 10.6362 15.8626V10.0185C6.54605 10.0185 2.81146 11.5704 0 14.1127L3.91969 18.4474Z" fill="#242433"/>
<path d="M164.959 19.1475V13.9796H165.409L167.772 18.0105H167.535L169.876 13.9796H170.326V19.1475H169.802V14.7991H169.927L167.772 18.4904H167.513L165.343 14.7991H165.483V19.1475H164.959ZM172.497 16.2904H175.229V16.7555H172.497V16.2904ZM172.556 18.675H175.664V19.1475H172.01V13.9796H175.553V14.4521H172.556V18.675ZM176.948 19.1475V13.9796H179.052C179.604 13.9796 180.086 14.0903 180.499 14.3118C180.918 14.5284 181.243 14.8311 181.474 15.2199C181.705 15.6087 181.821 16.0566 181.821 16.5635C181.821 17.0705 181.705 17.5184 181.474 17.9072C181.243 18.296 180.918 18.6011 180.499 18.8226C180.086 19.0392 179.604 19.1475 179.052 19.1475H176.948ZM177.495 18.675H179.023C179.481 18.675 179.877 18.5864 180.212 18.4092C180.551 18.2271 180.814 17.9785 181.001 17.6635C181.189 17.3436 181.282 16.977 181.282 16.5635C181.282 16.1452 181.189 15.7785 181.001 15.4635C180.814 15.1485 180.551 14.9024 180.212 14.7253C179.877 14.5431 179.481 14.4521 179.023 14.4521H177.495V18.675ZM183.048 19.1475V13.9796H183.594V19.1475H183.048ZM184.449 19.1475L186.811 13.9796H187.35L189.712 19.1475H189.137L186.966 14.2971H187.188L185.017 19.1475H184.449ZM185.379 17.7669L185.541 17.3239H188.546L188.708 17.7669H185.379Z" fill="#242433"/>
<path d="M156.965 19.4157C155.913 19.4157 154.904 19.2779 153.94 19.0022C152.975 18.7141 152.198 18.3445 151.609 17.8935L152.643 15.6007C153.207 16.0016 153.871 16.3336 154.635 16.5967C155.412 16.8473 156.195 16.9726 156.984 16.9726C157.586 16.9726 158.068 16.9162 158.431 16.8035C158.807 16.6782 159.083 16.509 159.258 16.2961C159.434 16.0831 159.521 15.8388 159.521 15.5631C159.521 15.2123 159.383 14.9367 159.108 14.7362C158.832 14.5232 158.469 14.3541 158.018 14.2288C157.567 14.091 157.066 13.9657 156.514 13.853C155.976 13.7277 155.431 13.5773 154.879 13.4019C154.341 13.2265 153.846 13.001 153.395 12.7254C152.944 12.4498 152.574 12.0864 152.286 11.6354C152.01 11.1844 151.872 10.608 151.872 9.90644C151.872 9.15472 152.073 8.47191 152.474 7.858C152.887 7.23157 153.501 6.73669 154.316 6.37336C155.142 5.9975 156.176 5.80957 157.416 5.80957C158.243 5.80957 159.058 5.9098 159.859 6.11026C160.661 6.29819 161.369 6.58635 161.983 6.97473L161.043 9.28627C160.43 8.93547 159.816 8.67863 159.202 8.51576C158.588 8.34036 157.986 8.25266 157.398 8.25266C156.809 8.25266 156.326 8.32157 155.951 8.45938C155.575 8.5972 155.305 8.77886 155.142 9.00438C154.98 9.21736 154.898 9.46794 154.898 9.7561C154.898 10.0944 155.036 10.37 155.312 10.583C155.587 10.7834 155.951 10.9463 156.402 11.0716C156.853 11.1969 157.347 11.3222 157.886 11.4475C158.437 11.5728 158.982 11.7168 159.521 11.8797C160.072 12.0426 160.574 12.2618 161.025 12.5375C161.476 12.8131 161.839 13.1764 162.115 13.6274C162.403 14.0785 162.547 14.6485 162.547 15.3376C162.547 16.0768 162.34 16.7533 161.927 17.3673C161.513 17.9812 160.893 18.476 160.066 18.8519C159.252 19.2278 158.218 19.4157 156.965 19.4157Z" fill="#242433"/>
<path d="M140.359 19.1902V6.03516H143.404V16.7096H150V19.1902H140.359Z" fill="#242433"/>
<path d="M131.793 19.4156C129.927 19.4156 128.467 18.8956 127.415 17.8557C126.362 16.8159 125.836 15.3312 125.836 13.4018V6.03495H128.88V13.289C128.88 14.5419 129.137 15.444 129.651 15.9952C130.165 16.5465 130.885 16.8221 131.812 16.8221C132.739 16.8221 133.46 16.5465 133.973 15.9952C134.487 15.444 134.744 14.5419 134.744 13.289V6.03495H137.751V13.4018C137.751 15.3312 137.224 16.8159 136.172 17.8557C135.12 18.8956 133.66 19.4156 131.793 19.4156Z" fill="#242433"/>
<path d="M112.441 19.19V6.03495H118.136C119.313 6.03495 120.328 6.22914 121.18 6.61753C122.032 6.99339 122.69 7.53839 123.153 8.25252C123.617 8.96666 123.849 9.8186 123.849 10.8084C123.849 11.7856 123.617 12.6313 123.153 13.3454C122.69 14.0596 122.032 14.6108 121.18 14.9992C120.328 15.3751 119.313 15.563 118.136 15.563H114.133L115.486 14.1911V19.19H112.441ZM115.486 14.5294L114.133 13.0823H117.967C118.906 13.0823 119.608 12.8819 120.071 12.4809C120.535 12.08 120.767 11.5225 120.767 10.8084C120.767 10.0817 120.535 9.51792 120.071 9.117C119.608 8.71608 118.906 8.51562 117.967 8.51562H114.133L115.486 7.06856V14.5294Z" fill="#242433"/>
<path d="M94.4844 19.19V6.03495H99.8404C101.244 6.03495 102.471 6.31685 103.524 6.88063C104.589 7.4319 105.416 8.20241 106.004 9.19217C106.593 10.1819 106.888 11.322 106.888 12.6125C106.888 13.9029 106.593 15.0431 106.004 16.0328C105.416 17.0226 104.589 17.7994 103.524 18.3631C102.471 18.9144 101.244 19.19 99.8404 19.19H94.4844ZM95.8751 17.9873H99.7652C100.93 17.9873 101.939 17.7618 102.791 17.3107C103.655 16.8472 104.326 16.2145 104.802 15.4126C105.278 14.5983 105.516 13.6649 105.516 12.6125C105.516 11.5476 105.278 10.6142 104.802 9.81234C104.326 9.01051 103.655 8.38407 102.791 7.93304C101.939 7.46948 100.93 7.2377 99.7652 7.2377H95.8751V17.9873Z" fill="#242433"/>
<path d="M80.3906 19.19V6.03495H81.537L90.614 17.4611H90.0126V6.03495H91.3845V19.19H90.2381L81.1799 7.76391H81.7813V19.19H80.3906Z" fill="#242433"/>
<path d="M69.0567 11.9169H76.0101V13.1009H69.0567V11.9169ZM69.2071 17.9871H77.1189V19.1898H67.8164V6.03474H76.837V7.2375H69.2071V17.9871Z" fill="#242433"/>
<path d="M54.4375 19.19V6.03495H59.3613C60.4763 6.03495 61.4348 6.21662 62.2366 6.57995C63.0384 6.93075 63.6523 7.44442 64.0783 8.12097C64.5168 8.78499 64.7361 9.59309 64.7361 10.5453C64.7361 11.4724 64.5168 12.2742 64.0783 12.9508C63.6523 13.6148 63.0384 14.1285 62.2366 14.4918C61.4348 14.8426 60.4763 15.018 59.3613 15.018H55.208L55.8282 14.379V19.19H54.4375ZM63.4205 19.19L60.0378 14.4166H61.5412L64.9428 19.19H63.4205ZM55.8282 14.4918L55.208 13.834H59.3237C60.6392 13.834 61.6352 13.5459 62.3118 12.9696C63.0008 12.3932 63.3454 11.5851 63.3454 10.5453C63.3454 9.49286 63.0008 8.6785 62.3118 8.10218C61.6352 7.52586 60.6392 7.2377 59.3237 7.2377H55.208L55.8282 6.57995V14.4918Z" fill="#242433"/>
<path d="M46.2012 19.19V7.2377H41.5781V6.03495H52.215V7.2377H47.5919V19.19H46.2012Z" fill="#242433"/>
</svg>
